<svg xmlns:xlink="http://www.w3.org/1999/xlink" xmlns:inkscape="http://www.inkscape.org/namespaces/inkscape" xmlns:sodipodi="http://sodipodi.sourceforge.net/DTD/sodipodi-0.dtd" xmlns="http://www.w3.org/2000/svg" xmlns:svg="http://www.w3.org/2000/svg" width="283.46604" height="82.746737" viewBox="0 0 283.46604 82.746737" version="1.1" id="svg4" sodipodi:docname="inr_logo_rouge_rvb.pdf">
  <defs id="defs8"/>
  <sodipodi:namedview id="namedview6" pagecolor="#ffffff" bordercolor="#000000" borderopacity="0.25" inkscape:showpageshadow="2" inkscape:pageopacity="0.0" inkscape:pagecheckerboard="0" inkscape:deskcolor="#d1d1d1" inkscape:document-units="pt" showgrid="false" inkscape:zoom="3.2895206" inkscape:cx="178.74945" inkscape:cy="55.175213" inkscape:window-width="1920" inkscape:window-height="1013" inkscape:window-x="-9" inkscape:window-y="-9" inkscape:window-maximized="1" inkscape:current-layer="svg4"/>
  <path fill-rule="nonzero" fill="#e53516" fill-opacity="1" d="m 92.455026,65.340488 c -3.73828,3.648437 -11.91797,9.757817 -19.06641,9.757817 -5.28906,0 5.2461,-9.476567 10.46094,-17.10938 4.98047,-7.296875 0.90625,-9.484375 -3.20703,-9.484375 -10.17578,0 -20.121094,7.148438 -26.859375,12.171875 2.035156,-2.726562 5.207031,-6.222656 8.589844,-10.683594 1.871094,-2.480468 -9.355469,-1.589843 -12.226563,2.191407 -0.914062,1.195312 -1.921875,2.539062 -3,3.972656 -9.738281,11.707031 -24.453125,19.609371 -31.671875,19.609371 -4.023437,0 -5.488281,-2.77343 -2.984375,-8.01171 C 18.529245,55.121738 39.333932,31.117831 50.63862,20.610019 55.775339,15.797519 40.349557,17.758456 36.810495,21.313144 21.142526,37.082675 5.369089,54.676425 0.91986995,68.371735 c -2.45703095,7.57422 -0.191406,14.375 9.21875005,14.375 7.726562,0 16.28125,-3.82422 23.546875,-8.37109 -1.789063,2.44141 -3.421875,4.65234 -4.730469,6.4375 -2.050781,2.77734 8.347656,1.76172 10.539063,-1.03516 8.222656,-10.51953 27.980467,-23.460935 33.480467,-23.460935 5.00391,0 -12.23828,12.921875 -12.078124,20.832035 0.199219,10.38672 24.261724,4.02734 32.429684,-6.66407 1.27735,-1.66796 0.27735,-6.261715 -0.87109,-5.144527 M 167.76753,42.117831 c 3.87109,-2.332031 11.16016,-7.988281 14.74609,-11.621093 2.79688,-2.84375 -9.52734,-1.574219 -12.49218,0.953125 -3.19141,2.730468 -8.5,7.621093 -11.5,11.136718 -1.75,2.054688 5.40234,1.847657 9.24609,-0.46875 m 7.56641,33.718754 c -9.53907,0 9.5625,-21.800785 22.00781,-21.800785 7.45312,0 -12.80469,21.800785 -22.00781,21.800785 m 106.73046,-1.19532 c 2.19141,1.3125 2.09375,-5.53515 -2.3164,-8.27734 -15.78906,-9.835937 -58.96875,7.30469 -75.34766,9.25781 -3.0664,0.36719 -4.18359,-0.41015 -3.46484,-2.48828 1.39453,-4.01953 6.86719,-11.402342 7.96875,-13.945311 1.03906,-2.429688 0.89844,-10.777344 -11.44922,-10.777344 -10.08984,0 -19.35156,4.683594 -25.85547,10.582031 -6.19922,5.289063 -18.20703,15.750004 -25.60156,15.750004 -7.65625,0 14.76172,-23.125004 16,-24.292972 3.33203,-3.125 -7.17188,-2.355469 -11.58594,1.007812 -1.76562,1.34375 -8.8125,8.878906 -13.21875,16.17578 -12.74609,8.8125 -25.4375,10.85938 -19.39844,3.53125 3.21094,-3.90234 8.64063,-9.132811 12.37891,-13.26953 5.21484,-5.785156 4.27344,-9.59375 -7.24219,-9.59375 -15.41406,0 -17.04687,1.34375 -25.746094,11.527344 -1.60938,1.894531 -0.77344,6.636716 0.89062,4.992187 10.433604,-10.324218 10.195324,-9.484375 24.007824,-9.484375 -2.22266,2.359375 -6.17969,4.714844 -12.89454,13.234374 -5.98046,7.59766 -2.0664,13.74219 6.42969,13.74219 4.69531,0 11.70703,-2.20313 18.1211,-6.72266 -0.76954,3.96094 0.82031,6.79297 6.87109,6.79297 7.00781,0 15.00781,-4.16797 21.63672,-8.80469 -0.82813,5.03125 1.75781,8.80469 9.17578,8.80469 5.70703,0 12.35547,-2.23828 19.21484,-8.1875 -0.0391,4.54297 3.16797,8.15625 9.14453,8.15625 14.55079,0 64.80079,-18.249999 82.28125,-7.71094 M 56.720651,10.715488 c 3.875,-2.3359384 7.867188,-5.4609384 11.449215,-9.0976574 2.80079,-2.839843 -9.52734,-1.57031195 -12.488277,0.957032 -3.1875,2.726562 -6.46875,5.738281 -9.46875,9.2539064 -1.753907,2.050781 6.664062,1.199219 10.507812,-1.113281" id="path2"/>
</svg>